# xmcd
#
# Track frame offsets:
#	150
#	18265
#	38767
#	62449
#	81289
#	93430
#	115904
#	132670
#	154201
#	175235
#	190066
#	208320
#
# Disc length: 3211 seconds
#
# Revision: 2
# Processed by: cddbd v1.5.2PL0 Copyright (c) Steve Scherf et al.
# Submitted via: dBpowerAMP V4.0
#
DISCID=a10c890c
DTITLE=Memphis Gold - Gator Gon' Bitechu!
DYEAR=2009
DGENRE=Blues
TTITLE0=I Shoulda Known
TTITLE1=Catfish Creeper
TTITLE2=Do You Stil Want Me?
TTITLE3=Gator Gon' Bitechu!
TTITLE4=My Two Kcandys
TTITLE5=Can't Get Enough
TTITLE6=In My Next Life
TTITLE7=Louise Fanniemae Brown
TTITLE8=How I Got Over You
TTITLE9=I Was Born In Memphis
TTITLE10=Squeaky Wheel
TTITLE11=Lil' Lucy
EXTD=Stackhouse Recording Co.
EXTT0=
EXTT1=
EXTT2=
EXTT3=
EXTT4=
EXTT5=
EXTT6=
EXTT7=
EXTT8=
EXTT9=
EXTT10=
EXTT11=
PLAYORDER=
